<svg width="88" height="100" viewBox="0 0 88 100" fill="none" xmlns="http://www.w3.org/2000/svg">
<path d="M75.2305 60.2148L79.8984 47.9882C80.6797 45.9375 79.1758 43.75 76.9687 43.75H65.543C67.6914 40.0586 69.0195 35.8203 69.0195 31.25V31.1914C76.6758 29.6679 81.5195 27.4609 81.5195 25C81.5195 22.4023 76.1875 20.0976 67.8281 18.5546C66.0313 12.1484 62.5547 5.70309 59.8984 2.38277C58.043 0.0585544 54.8398 -0.664102 52.1836 0.664023L46.793 3.35934C45.0352 4.23824 42.9648 4.23824 41.207 3.35934L35.8164 0.664023C33.1602 -0.664102 29.957 0.0585544 28.1016 2.38277C25.4648 5.70309 21.9687 12.1484 20.1719 18.5546C11.832 20.0976 6.5 22.4023 6.5 25C6.5 27.4609 11.3437 29.6679 19 31.1914V31.25C19 35.8203 20.3281 40.0586 22.4766 43.75H11.2461C9 43.75 7.49609 46.0351 8.375 48.1054L13.4141 59.8632C5.58203 64.414 0.25 72.7929 0.25 82.5V91.25C0.25 96.0742 4.17578 100 9 100H79C83.8242 100 87.75 96.0742 87.75 91.25V82.5C87.75 73.0468 82.7109 64.8437 75.2305 60.2148V60.2148ZM34.625 93.75L26.5 56.25L36.1875 62.5L40.875 70.3125L34.625 93.75ZM53.375 93.75L47.125 70.3125L51.8125 62.5L61.5 56.25L53.375 93.75ZM61.5195 35.4492C60.7578 37.7734 60.1523 40.2539 58.2969 41.9726C56.3242 43.789 48.9219 46.3476 45.7969 37.0898C45.25 35.4492 42.7891 35.4492 42.2227 37.0898C38.9023 46.8945 31.2852 43.4179 29.7227 41.9726C27.8672 40.2539 27.2422 37.7734 26.5 35.4492C26.3437 34.9609 25.2695 34.3359 25.2695 34.3164V32.207C30.7969 32.9101 37.1836 33.3398 44.0195 33.3398C50.8555 33.3398 57.2422 32.9296 62.7695 32.207V34.3164C62.75 34.3359 61.6758 34.9414 61.5195 35.4492Z" fill="white"/>
</svg>
