<svg width="100" height="100" viewBox="0 0 100 100" fill="none" xmlns="http://www.w3.org/2000/svg">
<g clip-path="url(#clip0_3_7)">
<rect width="100" height="100" fill="#transparent"/>
<path d="M48.6767 31.2951L16.668 57.658V86.1111C16.668 86.8478 16.9606 87.5544 17.4816 88.0753C18.0025 88.5962 18.7091 88.8889 19.4458 88.8889L38.9006 88.8385C39.6349 88.8349 40.3379 88.5406 40.8558 88.0201C41.3738 87.4995 41.6645 86.7951 41.6645 86.0608V69.4445C41.6645 68.7077 41.9572 68.0012 42.4781 67.4803C42.999 66.9593 43.7056 66.6667 44.4423 66.6667H55.5534C56.2901 66.6667 56.9967 66.9593 57.5176 67.4803C58.0385 68.0012 58.3312 68.7077 58.3312 69.4445V86.0486C58.33 86.4141 58.401 86.7763 58.5401 87.1143C58.6792 87.4523 58.8836 87.7596 59.1417 88.0184C59.3998 88.2773 59.7064 88.4827 60.0439 88.6228C60.3815 88.7629 60.7434 88.8351 61.109 88.8351L80.5569 88.8889C81.2936 88.8889 82.0001 88.5962 82.5211 88.0753C83.042 87.5544 83.3346 86.8478 83.3346 86.1111V57.6389L51.3329 31.2951C50.9567 30.9919 50.488 30.8265 50.0048 30.8265C49.5216 30.8265 49.0529 30.9919 48.6767 31.2951ZM99.2374 49.2136L84.7235 37.25V13.2031C84.7235 12.6506 84.504 12.1207 84.1133 11.73C83.7226 11.3393 83.1927 11.1198 82.6402 11.1198H72.918C72.3654 11.1198 71.8355 11.3393 71.4448 11.73C71.0541 12.1207 70.8346 12.6506 70.8346 13.2031V25.809L55.2912 13.0208C53.7996 11.7934 51.9279 11.1223 49.9961 11.1223C48.0644 11.1223 46.1926 11.7934 44.701 13.0208L0.754792 49.2136C0.543833 49.3879 0.369298 49.6021 0.241159 49.844C0.11302 50.0858 0.033789 50.3505 0.00799284 50.623C-0.0178034 50.8955 0.0103409 51.1704 0.0908176 51.432C0.171294 51.6936 0.302526 51.9367 0.477015 52.1476L4.9041 57.5295C5.07811 57.7411 5.29215 57.9163 5.53396 58.0451C5.77576 58.1738 6.04059 58.2537 6.31328 58.2799C6.58598 58.3062 6.86117 58.2785 7.12313 58.1983C7.38508 58.1181 7.62864 57.987 7.83986 57.8125L48.6767 24.1771C49.0529 23.8738 49.5216 23.7085 50.0048 23.7085C50.488 23.7085 50.9567 23.8738 51.3329 24.1771L92.1715 57.8125C92.3823 57.987 92.6255 58.1182 92.8871 58.1987C93.1487 58.2792 93.4236 58.3073 93.696 58.2815C93.9685 58.2557 94.2332 58.1765 94.4751 58.0484C94.7169 57.9202 94.9311 57.7457 95.1055 57.5347L99.5326 52.1528C99.7069 51.9407 99.8375 51.6963 99.9171 51.4335C99.9966 51.1708 100.023 50.895 99.996 50.6218C99.9686 50.3487 99.8874 50.0837 99.7573 49.842C99.6271 49.6003 99.4504 49.3867 99.2374 49.2136Z" fill="white"/>
</g>
<defs>
<clipPath id="clip0_3_7">
<rect width="100" height="100" fill="white"/>
</clipPath>
</defs>
</svg>
