<svg width="713" height="421" viewBox="0 0 713 421" fill="none" xmlns="http://www.w3.org/2000/svg">
<g clip-path="url(#clip0_12_38)">
<path d="M643.147 173.675H224.826C223.05 173.675 221.346 174.635 220.09 176.345C218.834 178.054 218.129 180.373 218.129 182.791C218.129 185.208 218.834 187.527 220.09 189.237C221.346 190.946 223.05 191.907 224.826 191.907H236.675V409.985C236.675 412.402 237.381 414.721 238.637 416.431C239.893 418.14 241.596 419.101 243.372 419.101C245.149 419.101 246.852 418.14 248.108 416.431C249.364 414.721 250.07 412.402 250.07 409.985L250.171 191.907H585.916L616.873 409.985C616.873 412.402 617.579 414.721 618.835 416.431C620.091 418.14 621.794 419.101 623.57 419.101C625.347 419.101 627.05 418.14 628.306 416.431C629.562 414.721 630.268 412.402 630.268 409.985L632.216 191.907H643.147C644.923 191.907 646.627 190.946 647.883 189.237C649.139 187.527 649.844 185.208 649.844 182.791C649.844 180.373 649.139 178.054 647.883 176.345C646.627 174.635 644.923 173.675 643.147 173.675Z" fill="#CCCCCC"/>
<path d="M297.337 133.056V171.659H226.281C224.419 171.747 222.563 171.335 220.817 170.447C219.072 169.558 217.472 168.211 216.11 166.481C214.747 164.751 213.648 162.672 212.876 160.364C212.103 158.056 211.672 155.564 211.608 153.029C211.543 150.494 211.845 147.967 212.498 145.592C213.151 143.216 214.141 141.039 215.412 139.184C216.683 137.33 218.21 135.834 219.906 134.782C221.601 133.731 223.433 133.144 225.295 133.056C225.624 133.041 225.952 133.041 226.281 133.056L297.337 133.056Z" fill="#F2F2F2"/>
<path d="M299.082 171.362C299.082 171.756 298.967 172.134 298.762 172.412C298.558 172.69 298.28 172.847 297.991 172.847H225.016C221.054 172.843 217.256 170.698 214.456 166.884C211.655 163.07 210.082 157.898 210.082 152.506C210.082 147.114 211.655 141.942 214.456 138.128C217.256 134.314 221.054 132.169 225.016 132.165H297.991C298.135 132.165 298.277 132.203 298.409 132.277C298.542 132.352 298.663 132.461 298.764 132.599C298.866 132.737 298.946 132.901 299.001 133.081C299.056 133.261 299.085 133.455 299.085 133.65C299.085 133.845 299.056 134.039 299.001 134.219C298.946 134.4 298.866 134.563 298.764 134.701C298.663 134.839 298.542 134.949 298.409 135.023C298.277 135.097 298.135 135.135 297.991 135.135H225.016C221.634 135.142 218.393 136.975 216.004 140.232C213.615 143.489 212.273 147.904 212.273 152.506C212.273 157.109 213.615 161.523 216.004 164.78C218.393 168.037 221.634 169.871 225.016 169.877H297.991C298.28 169.878 298.558 170.034 298.762 170.313C298.967 170.591 299.082 170.969 299.082 171.362Z" fill="#A9F1D7"/>
<path d="M297.337 141.965H220.98C220.922 141.965 220.867 141.934 220.826 141.879C220.784 141.824 220.761 141.749 220.761 141.67C220.76 141.592 220.782 141.516 220.823 141.46C220.863 141.404 220.918 141.372 220.976 141.371H297.337C297.394 141.371 297.449 141.403 297.489 141.459C297.53 141.514 297.553 141.589 297.553 141.668C297.553 141.746 297.53 141.821 297.489 141.877C297.449 141.932 297.394 141.964 297.337 141.965Z" fill="#CCCCCC"/>
<path d="M297.337 149.091H220.98C220.922 149.092 220.867 149.061 220.826 149.006C220.784 148.951 220.761 148.876 220.761 148.797C220.76 148.719 220.782 148.643 220.823 148.587C220.863 148.531 220.918 148.498 220.976 148.497H297.337C297.394 148.498 297.449 148.53 297.489 148.585C297.53 148.641 297.553 148.716 297.553 148.794C297.553 148.873 297.53 148.948 297.489 149.003C297.449 149.059 297.394 149.091 297.337 149.091Z" fill="#CCCCCC"/>
<path d="M297.337 156.218H220.98C220.922 156.218 220.867 156.188 220.826 156.133C220.784 156.077 220.761 156.002 220.761 155.924C220.76 155.845 220.782 155.77 220.823 155.713C220.863 155.657 220.918 155.625 220.976 155.624H297.337C297.394 155.625 297.449 155.656 297.489 155.712C297.53 155.768 297.553 155.843 297.553 155.921C297.553 155.999 297.53 156.074 297.489 156.13C297.449 156.186 297.394 156.217 297.337 156.218Z" fill="#CCCCCC"/>
<path d="M297.337 163.345H220.98C220.922 163.345 220.867 163.314 220.826 163.259C220.784 163.204 220.761 163.129 220.761 163.05C220.76 162.972 220.782 162.896 220.823 162.84C220.863 162.784 220.918 162.752 220.976 162.751H297.337C297.394 162.752 297.449 162.783 297.489 162.839C297.53 162.894 297.553 162.969 297.553 163.048C297.553 163.126 297.53 163.201 297.489 163.257C297.449 163.312 297.394 163.344 297.337 163.345Z" fill="#CCCCCC"/>
<path d="M283.942 92.3857V130.989H212.887C209.126 131.167 205.467 129.304 202.715 125.81C199.963 122.316 198.344 117.478 198.213 112.359C198.082 107.24 199.451 102.259 202.018 98.5138C204.584 94.7681 208.139 92.5638 211.9 92.3857C212.229 92.3701 212.558 92.3701 212.887 92.3857H283.942Z" fill="#F2F2F2"/>
<path d="M285.687 130.692C285.687 131.085 285.572 131.463 285.368 131.741C285.163 132.02 284.886 132.176 284.597 132.176H211.621C207.658 132.176 203.857 130.033 201.054 126.219C198.252 122.404 196.677 117.23 196.677 111.836C196.677 106.441 198.252 101.267 201.054 97.4525C203.857 93.6379 207.658 91.4949 211.621 91.4949H284.597C284.74 91.4949 284.882 91.5333 285.014 91.6079C285.146 91.6825 285.267 91.7918 285.368 91.9297C285.469 92.0676 285.55 92.2313 285.604 92.4114C285.659 92.5915 285.687 92.7846 285.687 92.9796C285.687 93.1746 285.659 93.3676 285.604 93.5477C285.55 93.7279 285.469 93.8916 285.368 94.0294C285.267 94.1673 285.146 94.2767 285.014 94.3513C284.882 94.4259 284.74 94.4643 284.597 94.4643H211.621C208.237 94.4643 204.99 96.2945 202.597 99.5523C200.204 102.81 198.859 107.228 198.859 111.836C198.859 116.443 200.204 120.861 202.597 124.119C204.99 127.377 208.237 129.207 211.621 129.207H284.597C284.886 129.207 285.163 129.364 285.368 129.642C285.572 129.92 285.687 130.298 285.687 130.692Z" fill="#3F3D56"/>
<path d="M283.942 101.294H207.585C207.528 101.294 207.472 101.264 207.431 101.209C207.39 101.153 207.367 101.078 207.366 101C207.366 100.921 207.388 100.846 207.428 100.789C207.469 100.733 207.524 100.701 207.581 100.7H283.942C283.999 100.701 284.054 100.733 284.095 100.788C284.135 100.844 284.158 100.919 284.158 100.997C284.158 101.075 284.135 101.15 284.095 101.206C284.054 101.262 283.999 101.293 283.942 101.294Z" fill="#CCCCCC"/>
<path d="M283.942 108.421H207.585C207.528 108.421 207.472 108.391 207.431 108.335C207.39 108.28 207.367 108.205 207.366 108.127C207.366 108.048 207.388 107.972 207.428 107.916C207.469 107.86 207.524 107.828 207.581 107.827H283.942C283.999 107.828 284.054 107.859 284.095 107.915C284.135 107.971 284.158 108.046 284.158 108.124C284.158 108.202 284.135 108.277 284.095 108.333C284.054 108.388 283.999 108.42 283.942 108.421Z" fill="#CCCCCC"/>
<path d="M283.942 115.547H207.585C207.528 115.548 207.472 115.517 207.431 115.462C207.39 115.407 207.367 115.332 207.366 115.253C207.366 115.175 207.388 115.099 207.428 115.043C207.469 114.987 207.524 114.955 207.581 114.954H283.942C283.999 114.954 284.054 114.986 284.095 115.042C284.135 115.097 284.158 115.172 284.158 115.251C284.158 115.329 284.135 115.404 284.095 115.459C284.054 115.515 283.999 115.547 283.942 115.547Z" fill="#CCCCCC"/>
<path d="M283.942 122.674H207.585C207.528 122.675 207.472 122.644 207.431 122.589C207.39 122.534 207.367 122.458 207.366 122.38C207.366 122.301 207.388 122.226 207.428 122.17C207.469 122.113 207.524 122.081 207.581 122.08H283.942C283.999 122.081 284.054 122.113 284.095 122.168C284.135 122.224 284.158 122.299 284.158 122.377C284.158 122.455 284.135 122.531 284.095 122.586C284.054 122.642 283.999 122.673 283.942 122.674Z" fill="#CCCCCC"/>
<path d="M366.601 310.274V276.616C366.601 275.128 366.166 273.701 365.394 272.649C364.621 271.597 363.572 271.006 362.479 271.006H268.718C267.625 271.006 266.576 271.597 265.804 272.649C265.031 273.701 264.596 275.128 264.596 276.616V310.274H366.601Z" fill="#CCCCCC"/>
<path d="M366.601 322.896H264.596V366.371H366.601V322.896Z" fill="#CCCCCC"/>
<path d="M264.596 378.993V412.652C264.596 414.14 265.031 415.566 265.804 416.618C266.576 417.67 267.625 418.261 268.718 418.261H362.479C363.572 418.261 364.621 417.67 365.394 416.618C366.166 415.566 366.601 414.14 366.601 412.652V378.993H264.596Z" fill="#CCCCCC"/>
<path d="M315.083 296.25C316.79 296.25 318.174 294.366 318.174 292.043C318.174 289.719 316.79 287.835 315.083 287.835C313.376 287.835 311.992 289.719 311.992 292.043C311.992 294.366 313.376 296.25 315.083 296.25Z" fill="white"/>
<path d="M315.083 352.347C316.79 352.347 318.174 350.463 318.174 348.14C318.174 345.816 316.79 343.933 315.083 343.933C313.376 343.933 311.992 345.816 311.992 348.14C311.992 350.463 313.376 352.347 315.083 352.347Z" fill="white"/>
<path d="M315.249 407.257C316.956 407.257 318.34 405.373 318.34 403.049C318.34 400.726 316.956 398.842 315.249 398.842C313.542 398.842 312.158 400.726 312.158 403.049C312.158 405.373 313.542 407.257 315.249 407.257Z" fill="white"/>
<path d="M355.036 232.629V271.232H283.981C280.222 271.406 276.565 269.542 273.816 266.049C271.066 262.555 269.448 257.719 269.317 252.602C269.186 247.485 270.553 242.507 273.117 238.762C275.682 235.017 279.234 232.811 282.993 232.629C283.322 232.613 283.652 232.613 283.981 232.629H355.036Z" fill="#F2F2F2"/>
<path d="M356.781 270.935C356.781 271.329 356.666 271.706 356.462 271.984C356.257 272.263 355.98 272.419 355.691 272.42H282.715C278.753 272.421 274.952 270.28 272.149 266.468C269.346 262.656 267.77 257.484 267.768 252.091C267.765 246.698 269.337 241.524 272.136 237.707C274.936 233.89 278.735 231.743 282.697 231.738H355.691C355.834 231.737 355.976 231.775 356.109 231.85C356.242 231.924 356.362 232.034 356.464 232.171C356.565 232.309 356.646 232.473 356.701 232.654C356.756 232.834 356.784 233.027 356.784 233.223C356.784 233.418 356.756 233.611 356.701 233.792C356.646 233.972 356.565 234.136 356.464 234.274C356.362 234.412 356.242 234.521 356.109 234.596C355.976 234.67 355.834 234.708 355.691 234.707H282.715C279.334 234.713 276.092 236.546 273.702 239.803C271.312 243.06 269.97 247.476 269.97 252.079C269.97 256.682 271.312 261.097 273.702 264.354C276.092 267.611 279.334 269.444 282.715 269.45H355.691C355.98 269.45 356.257 269.607 356.462 269.885C356.666 270.164 356.781 270.541 356.781 270.935Z" fill="#3F3D56"/>
<path d="M355.036 241.537H278.679C278.622 241.538 278.566 241.507 278.525 241.452C278.484 241.397 278.461 241.321 278.46 241.243C278.459 241.164 278.482 241.089 278.522 241.033C278.562 240.976 278.618 240.944 278.675 240.943H355.036C355.093 240.944 355.148 240.976 355.189 241.031C355.229 241.087 355.252 241.162 355.252 241.24C355.252 241.318 355.229 241.394 355.189 241.449C355.148 241.505 355.093 241.536 355.036 241.537H355.036Z" fill="#CCCCCC"/>
<path d="M355.036 248.664H278.679C278.622 248.664 278.566 248.634 278.525 248.579C278.484 248.523 278.461 248.448 278.46 248.37C278.459 248.291 278.482 248.216 278.522 248.159C278.562 248.103 278.618 248.071 278.675 248.07H355.036C355.093 248.071 355.148 248.102 355.189 248.158C355.229 248.214 355.252 248.289 355.252 248.367C355.252 248.445 355.229 248.52 355.189 248.576C355.148 248.632 355.093 248.663 355.036 248.664H355.036Z" fill="#CCCCCC"/>
<path d="M355.036 255.791H278.679C278.622 255.791 278.566 255.76 278.525 255.705C278.484 255.65 278.461 255.575 278.46 255.497C278.459 255.418 278.482 255.342 278.522 255.286C278.562 255.23 278.618 255.198 278.675 255.197H355.036C355.093 255.198 355.148 255.229 355.189 255.285C355.229 255.34 355.252 255.416 355.252 255.494C355.252 255.572 355.229 255.647 355.189 255.703C355.148 255.758 355.093 255.79 355.036 255.791H355.036Z" fill="#CCCCCC"/>
<path d="M355.036 262.917H278.679C278.622 262.918 278.566 262.887 278.525 262.832C278.484 262.777 278.461 262.702 278.46 262.623C278.459 262.545 278.482 262.469 278.522 262.413C278.562 262.357 278.618 262.324 278.675 262.323H355.036C355.093 262.324 355.148 262.356 355.189 262.411C355.229 262.467 355.252 262.542 355.252 262.62C355.252 262.699 355.229 262.774 355.189 262.829C355.148 262.885 355.093 262.916 355.036 262.917H355.036Z" fill="#CCCCCC"/>
<path d="M271.585 79.5078H239.212C238.905 79.5075 238.602 79.6035 238.326 79.7883L230.155 85.3559C229.886 85.5115 229.657 85.7713 229.496 86.103C229.335 86.4346 229.249 86.8235 229.249 87.2212C229.249 87.6188 229.335 88.0077 229.496 88.3394C229.657 88.671 229.886 88.9308 230.155 89.0864L238.326 94.654C238.602 94.8389 238.905 94.9349 239.212 94.9345H271.585C272.032 94.9697 272.47 94.7641 272.806 94.3625C273.141 93.9609 273.347 93.3955 273.379 92.7888V81.6535C273.347 81.0468 273.141 80.4814 272.806 80.0798C272.47 79.6782 272.032 79.4727 271.585 79.5078Z" fill="#3F3D56"/>
<path d="M273.379 81.6536V92.7888C273.347 93.3956 273.141 93.961 272.806 94.3626C272.47 94.7642 272.032 94.9697 271.586 94.9346H265.136V79.5078H271.586C272.032 79.4727 272.47 79.6782 272.806 80.0798C273.141 80.4815 273.347 81.0469 273.379 81.6536Z" fill="#A9F1D7"/>
<path d="M77.4968 297.699C81.6654 299.693 86.141 300.193 90.4926 299.149C94.8442 298.106 98.925 295.555 102.342 291.742C111.044 281.8 113.772 265.421 115.992 250.256C118.181 235.303 120.37 220.351 122.559 205.398L108.812 218.282C98.9254 227.548 88.8165 237.11 81.9714 250.531C75.1263 263.951 72.1384 282.272 77.6382 296.794" fill="#E6E6E6"/>
<path d="M78.672 352.008C77.2806 338.213 75.8499 324.241 76.8259 310.298C77.6926 297.915 80.4681 285.821 86.1187 275.904C89.118 270.65 92.7676 266.149 96.9034 262.602C97.9818 261.675 98.9744 264.002 97.9007 264.924C90.7446 271.08 85.2096 280.17 82.0938 290.884C78.6524 302.798 78.0998 315.786 78.6928 328.442C79.0514 336.096 79.8115 343.699 80.5774 351.293C80.6378 351.636 80.6001 351.998 80.472 352.305C80.3439 352.612 80.135 352.842 79.8874 352.947C79.6347 353.04 79.3655 352.993 79.1379 352.817C78.9104 352.641 78.743 352.351 78.672 352.008L78.672 352.008Z" fill="#F2F2F2"/>
<path d="M92.0736 327.597C93.8614 331.296 96.3189 334.305 99.2093 336.336C102.1 338.366 105.325 339.349 108.576 339.19C116.93 338.651 123.894 330.715 130.163 323.18L148.707 300.896L136.434 300.096C127.608 299.521 118.555 298.985 110.149 302.69C101.743 306.394 93.9901 315.31 92.453 327.153" fill="#E6E6E6"/>
<path d="M74.7398 359.938C81.4368 343.809 89.2048 325.883 103.085 320.154C106.944 318.566 110.991 317.997 115.007 318.478C116.273 318.627 115.957 321.282 114.693 321.134C107.961 320.373 101.242 322.793 95.6671 327.986C90.3024 332.956 86.1255 339.866 82.5901 347.194C80.4246 351.682 78.4849 356.361 76.5448 361.033C75.9248 362.527 74.1125 361.449 74.7398 359.938L74.7398 359.938Z" fill="#F2F2F2"/>
<path d="M64.0092 376.915C64.2349 373.356 65.1736 369.95 66.7232 367.067C68.2728 364.184 70.3738 361.936 72.7975 360.566V351.241H84.2876V360.859C86.5919 362.297 88.5751 364.54 90.0349 367.36C91.4947 370.181 92.3788 373.478 92.5973 376.915L95.2991 419.664H61.3074L64.0092 376.915Z" fill="#F2F2F2"/>
<path d="M454.767 172.799L451.349 170.84L449.004 147.517H417.779L415.237 170.744L412.179 172.825C412.033 172.925 411.916 173.089 411.846 173.291C411.777 173.492 411.76 173.72 411.797 173.937C411.835 174.153 411.925 174.346 412.053 174.485C412.182 174.623 412.341 174.698 412.504 174.698H454.486C454.653 174.698 454.816 174.619 454.945 174.474C455.075 174.33 455.164 174.129 455.197 173.905C455.231 173.681 455.206 173.449 455.127 173.247C455.049 173.046 454.922 172.887 454.767 172.799Z" fill="#E6E6E6"/>
<path d="M510.257 150.62H356.869C356.064 150.617 355.293 150.18 354.725 149.405C354.156 148.629 353.837 147.579 353.837 146.483V117.043H513.289V146.483C513.289 147.579 512.97 148.629 512.401 149.405C511.833 150.18 511.062 150.617 510.257 150.62Z" fill="#CCCCCC"/>
<path d="M513.449 130.957H353.697V4.98623C353.698 3.66424 354.084 2.39683 354.771 1.46206C355.458 0.527282 356.389 0.0014716 357.36 -7.62939e-06H509.786C510.757 0.00147157 511.688 0.527284 512.375 1.46206C513.062 2.39683 513.448 3.66423 513.45 4.98623L513.449 130.957Z" fill="#3F3D56"/>
<path d="M503.908 121.814H363.238C362.49 121.813 361.772 121.408 361.242 120.687C360.713 119.966 360.415 118.989 360.414 117.97V12.987C360.415 11.9678 360.713 10.9907 361.242 10.27C361.772 9.54931 362.49 9.14392 363.238 9.14275H503.908C504.657 9.14392 505.375 9.54931 505.904 10.27C506.434 10.9907 506.731 11.9678 506.732 12.987V117.97C506.731 118.989 506.434 119.966 505.904 120.687C505.375 121.408 504.657 121.813 503.908 121.814Z" fill="white"/>
<path d="M466.858 158.857C467.766 157.715 468.847 156.859 470.025 156.347C471.203 155.835 472.449 155.681 473.675 155.896C474.901 156.111 476.078 156.689 477.122 157.59C478.167 158.49 479.053 159.692 479.719 161.109L498.747 156.505L503.623 171.561L476.685 177.549C474.862 178.915 472.733 179.323 470.703 178.695C468.673 178.068 466.883 176.449 465.672 174.145C464.46 171.841 463.912 169.012 464.131 166.194C464.349 163.377 465.32 160.766 466.858 158.857Z" fill="#FFB6B6"/>
<path d="M484.474 178.081L504.31 177.745L506.821 177.699L547.179 177.006C547.179 177.006 558.138 162.775 567.681 148.123L566.344 134.955C565.039 122.031 560.329 110.193 553.091 101.644C539.423 114.075 531.497 138.68 531.497 138.68L506.473 146.827L503.97 147.641L488.422 152.699L484.474 178.081Z" fill="#A9F1D7"/>
<path d="M586.018 259.02H548.991C548.991 261.179 508.516 262.932 508.516 262.932C507.623 263.847 506.809 264.897 506.09 266.061C503.93 269.569 502.749 274.003 502.756 278.58V281.71C502.757 286.897 504.272 291.871 506.966 295.539C509.661 299.207 513.316 301.268 517.127 301.27H586.018C589.829 301.265 593.482 299.203 596.176 295.536C598.87 291.869 600.386 286.896 600.389 281.71V278.58C600.384 273.394 598.868 268.423 596.174 264.757C593.48 261.09 589.828 259.027 586.018 259.02Z" fill="#E4E4E4"/>
<path d="M559.092 300.493H544.147V417.912H559.092V300.493Z" fill="#E4E4E4"/>
<path d="M501.61 417.198C501.61 419.396 524.257 418.048 552.194 418.048C580.132 418.048 602.779 419.396 602.779 417.198C602.779 415 580.132 397.57 552.194 397.57C524.257 397.57 501.61 415 501.61 417.198Z" fill="#E4E4E4"/>
<path d="M491.57 403.781L480.447 403.78L475.155 345.384L491.571 345.385L491.57 403.781Z" fill="#FFB6B6"/>
<path d="M494.406 418.457L458.541 418.455V417.838C458.541 412.798 460.012 407.965 462.63 404.402C465.248 400.839 468.799 398.837 472.501 398.837H472.502L494.407 398.838L494.406 418.457Z" fill="#2F2E41"/>
<path d="M458.695 403.781L447.572 403.78L442.28 345.384L458.696 345.385L458.695 403.781Z" fill="#FFB6B6"/>
<path d="M461.531 418.457L425.666 418.455V417.838C425.666 412.798 427.137 407.965 429.755 404.402C432.373 400.839 435.923 398.837 439.626 398.837H439.626L461.532 398.838L461.531 418.457Z" fill="#2F2E41"/>
<path d="M558.333 67.5843C569.014 67.5843 577.673 55.7985 577.673 41.2601C577.673 26.7217 569.014 14.936 558.333 14.936C547.652 14.936 538.993 26.7217 538.993 41.2601C538.993 55.7985 547.652 67.5843 558.333 67.5843Z" fill="#FFB6B6"/>
<path d="M589.634 221.623C589.634 221.623 596.123 268.328 571.433 274.275C546.743 280.223 511.102 284.403 511.102 284.403L495.097 386.043L473.594 383.431C473.594 383.431 476.454 261.078 483.487 251.506C490.52 241.933 534.969 213.271 534.969 213.271L589.634 221.623Z" fill="#2F2E41"/>
<path d="M541.413 202.048L530.614 216.793C530.614 216.793 452.644 233.887 449.636 258.399C445.095 295.406 439.731 375.881 439.731 375.881L463.174 373.488L472.366 282.01L509.874 270.397L552.548 238.743L541.413 202.048Z" fill="#2F2E41"/>
<path d="M576.943 25.5466C575.034 20.6438 572.608 10.8725 568.755 9.06027C566.615 8.09447 564.403 7.45315 562.16 7.14798L555.61 10.5768L559.175 6.8032C558.481 6.74692 557.787 6.70091 557.094 6.66518L552.675 8.97863L554.936 6.58513C550.816 6.52757 546.563 7.11065 543.371 10.5244C540.649 13.4347 537.953 24.4593 537.517 29.1324C537.051 33.6029 537.214 38.1533 537.998 42.5407L539.117 43.9892C539.508 42.7674 539.803 41.4921 539.995 40.185C540.396 37.7429 541.167 35.4412 542.258 33.4269C543.348 31.4125 544.736 29.7295 546.331 28.4852L546.392 28.4385C548.269 27.0006 550.546 27.0669 552.699 27.1723L562.922 27.673C565.381 27.7935 568.03 28.0053 569.947 30.1053C571.166 31.6544 572.124 33.5438 572.756 35.6441C573.709 38.2617 575.571 48.1345 575.571 48.1345C575.571 48.1345 576.625 46.2708 577.129 47.6579C577.939 44.0389 578.431 40.3023 578.596 36.5259C578.757 32.7326 578.187 28.9479 576.943 25.5466Z" fill="#2F2E41"/>
<path d="M644.586 52.8204C643.352 52.931 642.151 53.4084 641.068 54.219C639.984 55.0296 639.045 56.1537 638.315 57.5122C637.585 58.8706 637.083 60.4303 636.844 62.0814C636.605 63.7324 636.635 65.4348 636.932 67.0684L621.379 82.6834L626.046 97.8618L647.781 75.3906C649.764 74.5304 651.447 72.7098 652.51 70.2739C653.573 67.8379 653.942 64.9558 653.549 62.1738C653.155 59.3917 652.025 56.9029 650.373 55.179C648.721 53.4552 646.662 52.6159 644.586 52.8204Z" fill="#FFB6B6"/>
<path d="M642.083 84.6984L603.095 143.636C603.095 143.636 584.45 135.512 570.031 126.704L563.553 99.6227C562.048 93.3403 561.407 86.7346 561.659 80.1359C581.648 72.8959 604.899 99.835 604.899 99.835L634.083 68.7198L642.083 84.6984Z" fill="#A9F1D7"/>
<path d="M551.109 225.976C544.153 222.705 536.961 219.324 529.202 218.054L528.869 217.999L528.961 217.56C536.992 179.179 534.988 154.627 531.052 117.747C530.215 109.792 531.291 101.682 534.118 94.6268C536.946 87.572 541.373 81.9508 546.74 78.6024L546.788 78.5731L568.946 76.6566L568.996 76.6525L585.111 83.1036C587.429 84.0385 589.458 85.9821 590.888 88.6367C592.317 91.2913 593.067 94.5104 593.023 97.8007C592.849 109.93 593.219 123.471 593.611 137.807C594.49 169.97 595.399 203.228 590.24 224.806L590.213 224.919L590.144 224.993C585.4 230.251 579.457 233.093 573.34 233.027C566.106 233.027 558.725 229.557 551.109 225.976Z" fill="#A9F1D7"/>
<path d="M711.97 421H1.03035C0.757084 421 0.495014 420.852 0.301786 420.589C0.108559 420.326 0 419.97 0 419.598C0 419.226 0.108559 418.869 0.301786 418.606C0.495014 418.343 0.757084 418.195 1.03035 418.195H711.97C712.243 418.195 712.505 418.343 712.698 418.606C712.891 418.869 713 419.226 713 419.598C713 419.97 712.891 420.326 712.698 420.589C712.505 420.852 712.243 421 711.97 421Z" fill="#CCCCCC"/>
</g>
<defs>
<clipPath id="clip0_12_38">
<rect width="713" height="421" fill="white"/>
</clipPath>
</defs>
</svg>
