<svg width="100" height="100" viewBox="0 0 100 100" fill="none" xmlns="http://www.w3.org/2000/svg">
<g clip-path="url(#clip0_3_51)">
<path d="M27.7778 83.3333C23.3333 83.3333 18.8889 79.4444 16.6667 77.7778C5.55556 70 2.22222 67.2222 0 65.5555V88.8889C0 91.9566 2.48785 94.4444 5.55556 94.4444H50C53.0677 94.4444 55.5556 91.9566 55.5556 88.8889V65.5555C53.3333 67.2222 50 70 38.8889 77.7778C36.6667 79.4444 32.2222 83.3333 27.7778 83.3333ZM50 50H5.55556C2.48785 50 0 52.4878 0 55.5555V58.3333C4.44444 61.6667 3.88889 61.6666 20 73.3333C21.6667 74.4444 25 77.7778 27.7778 77.7778C30.5556 77.7778 33.8889 74.4444 35.5556 73.8889C51.6667 62.2222 51.1111 62.2222 55.5556 58.8889V55.5555C55.5556 52.4878 53.0677 50 50 50ZM94.4444 33.3333H38.8889C35.8212 33.3333 33.3333 35.8212 33.3333 38.8889V44.4444H50C55.7656 44.4444 60.5191 48.8576 61.0608 54.4826L61.1111 54.4444V77.7778H94.4444C97.5121 77.7778 100 75.2899 100 72.2222V38.8889C100 35.8212 97.5121 33.3333 94.4444 33.3333ZM88.8889 55.5555H77.7778V44.4444H88.8889V55.5555ZM27.7778 38.8889C27.7778 32.7621 32.7621 27.7778 38.8889 27.7778H77.7778V11.1111C77.7778 8.04339 75.2899 5.55554 72.2222 5.55554H16.6667C13.599 5.55554 11.1111 8.04339 11.1111 11.1111V44.4444H27.7778V38.8889Z" fill="white"/>
</g>
<defs>
<clipPath id="clip0_3_51">
<rect width="100" height="100" fill="white"/>
</clipPath>
</defs>
</svg>
