<svg width="98" height="98" viewBox="0 0 98 98" fill="none" xmlns="http://www.w3.org/2000/svg">
<path d="M49 0.5625C22.2422 0.5625 0.5625 22.2422 0.5625 49C0.5625 75.7578 22.2422 97.4375 49 97.4375C75.7578 97.4375 97.4375 75.7578 97.4375 49C97.4375 22.2422 75.7578 0.5625 49 0.5625ZM60.1523 68.9414L42.9258 56.4219C42.3203 55.9727 41.9688 55.2695 41.9688 54.5273V21.6562C41.9688 20.3672 43.0234 19.3125 44.3125 19.3125H53.6875C54.9766 19.3125 56.0312 20.3672 56.0312 21.6562V48.5508L68.4336 57.5742C69.4883 58.3359 69.7031 59.8008 68.9414 60.8555L63.4336 68.4336C62.6719 69.4688 61.207 69.7031 60.1523 68.9414Z" fill="white"/>
</svg>
